<svg width="100" height="100" viewBox="0 0 100 100" fill="none" xmlns="http://www.w3.org/2000/svg">
<g clip-path="url(#clip0_103_42)">
<path d="M12.7375 8.82346C11.8691 9.14909 11.435 9.529 11.435 9.96319C11.435 10.5059 12.1405 10.8315 13.5516 10.9401C16.2652 11.1572 17.622 12.514 17.622 15.0105C17.622 17.0729 16.6451 18.7554 14.6913 20.0579C12.9546 20.9263 11.2179 21.3605 9.48113 21.3605C8.28713 21.3605 7.09313 21.1434 5.89913 20.7092C3.94531 19.4066 2.9684 17.6699 2.9684 15.499C2.9684 13.8708 3.5654 12.3512 4.7594 10.9401C7.69013 8.55209 12.3033 6.92391 18.599 6.05554L19.7387 7.68373L12.7375 8.82346ZM71.8404 93.1154C71.8404 94.4604 71.0645 94.9777 69.5125 94.6674L26.9892 66.1115C26.8857 65.0769 27.0409 64.3009 27.4547 63.7836C27.8686 63.2663 28.5411 63.0594 29.4723 63.1628C32.5762 65.7494 35.5766 67.0427 38.4736 67.0427C42.5086 67.0427 45.9229 64.9217 48.7164 60.6797C49.7511 58.507 50.2166 54.265 50.1132 47.9537L42.819 44.0739V53.6959C42.0948 57.5241 39.8703 59.3864 36.1456 59.2829C34.1798 59.1795 32.0071 58.7656 29.6275 58.0414L9.60735 45.005C10.1247 43.5565 10.9524 42.7806 12.0905 42.6771L20.0054 47.9537C21.5573 48.9884 23.161 49.5057 24.8164 49.5057C27.2995 49.5057 29.4205 48.8332 31.1794 47.4882V34.607L25.7476 31.6583C26.8857 33.1068 27.4547 34.5035 27.4547 35.8485C27.4547 38.849 25.3337 40.3492 21.0918 40.3492C17.7809 39.6249 14.9357 37.9695 12.556 35.383C12.0387 33.831 11.7801 32.3825 11.7801 31.0375C11.7801 26.7955 14.4184 24.6228 19.695 24.5193C22.592 24.8297 26.4201 26.7438 31.1794 30.2615V15.6732C19.5915 14.949 11.9353 11.5347 8.21059 5.43037H61.4424V85.2005L71.5301 91.8738C71.737 92.2877 71.8404 92.7016 71.8404 93.1154ZM50.1132 43.6083V13.5005L42.819 14.7421V38.7972L50.1132 43.6083ZM90.3304 93.581C90.3304 94.8225 89.7614 95.4433 88.6233 95.4433C88.3129 95.4433 88.0542 95.3399 87.8473 95.1329L68.2928 82.8726V11.6382L56.6532 13.6557L56.8084 5.43037H79.7772V85.6661L88.6233 91.2531C88.9337 91.46 89.3993 91.8738 90.0201 92.4946C90.227 92.805 90.3304 93.1671 90.3304 93.581Z" fill="white"/>
</g>
<defs>
<clipPath id="clip0_103_42">
<rect width="100" height="100" fill="white"/>
</clipPath>
</defs>
</svg>
